<svg width="530" height="530" viewBox="0 0 530 530" fill="none" xmlns="http://www.w3.org/2000/svg">
<rect width="530" height="530" fill="white"/>
<path d="M106.475 271.84C104.075 272.59 101.915 272.725 99.995 272.245C97.985 271.705 96.245 270.865 94.775 269.725C93.365 268.585 91.925 267.22 90.455 265.63L66.74 239.35V261.85C66.77 262.9 67.235 263.68 68.135 264.19C68.555 264.43 69.005 264.55 69.485 264.55H70.34V265H61.07V264.55H61.925C62.675 264.55 63.32 264.295 63.86 263.785C64.4 263.245 64.67 262.585 64.67 261.805V237.1C64.52 236.89 64.22 236.5 63.77 235.93C63.32 235.33 62.945 234.85 62.645 234.49C62.345 234.13 61.94 233.665 61.43 233.095C60.92 232.495 60.44 232.015 59.99 231.655C59.57 231.295 59.075 230.875 58.505 230.395C57.605 229.705 56.645 229.21 55.625 228.91C54.605 228.61 53.75 228.46 53.06 228.46C52.34 228.46 51.575 228.58 50.765 228.82L50.585 228.37C52.025 227.77 53.42 227.47 54.77 227.47C56.09 227.47 57.23 227.635 58.19 227.965C59.15 228.265 60.185 228.82 61.295 229.63C62.405 230.44 63.305 231.19 63.995 231.88C64.715 232.57 65.57 233.47 66.56 234.58L89.24 259.78V236.695C89.21 235.915 88.925 235.27 88.385 234.76C87.845 234.22 87.2 233.95 86.45 233.95H85.595V233.5H94.865V233.95H94.055C93.305 233.95 92.66 234.22 92.12 234.76C91.58 235.27 91.295 235.9 91.265 236.65V262.075C91.565 262.405 91.985 262.9 92.525 263.56C93.095 264.22 93.485 264.685 93.695 264.955C93.935 265.225 94.28 265.615 94.73 266.125C95.18 266.635 95.555 267.025 95.855 267.295C96.185 267.595 96.575 267.955 97.025 268.375C97.505 268.825 97.94 269.17 98.33 269.41C98.75 269.68 99.215 269.98 99.725 270.31C100.445 270.73 101.255 271.045 102.155 271.255C103.085 271.465 103.835 271.57 104.405 271.57C105.005 271.57 105.635 271.51 106.295 271.39L106.475 271.84ZM129.057 264.55H129.417V265H119.292V264.55H119.697C120.327 264.55 120.792 264.355 121.092 263.965C121.422 263.545 121.587 263.155 121.587 262.795C121.587 262.435 121.527 262.075 121.407 261.715L118.527 254.065H106.377L103.362 261.76C103.242 262.12 103.182 262.48 103.182 262.84C103.182 263.17 103.332 263.545 103.632 263.965C103.962 264.355 104.442 264.55 105.072 264.55H105.477V265H96.4319V264.55H96.8369C97.5869 264.55 98.3219 264.31 99.0419 263.83C99.7619 263.35 100.347 262.645 100.797 261.715L110.967 237.505C112.077 235.075 112.632 233.53 112.632 232.87H113.037L125.097 261.715C125.517 262.645 126.087 263.35 126.807 263.83C127.527 264.31 128.277 264.55 129.057 264.55ZM106.917 252.715H117.987L112.587 238.27L106.917 252.715ZM140.843 234.895H137.963V261.715C137.963 262.495 138.233 263.17 138.773 263.74C139.343 264.28 140.033 264.55 140.843 264.55H141.383L141.428 265H131.573V264.55H132.158C132.938 264.55 133.598 264.28 134.138 263.74C134.708 263.2 135.008 262.54 135.038 261.76V236.785C135.008 236.005 134.708 235.345 134.138 234.805C133.598 234.235 132.938 233.95 132.158 233.95H131.573V233.5H143.723C146.453 233.5 148.598 234.265 150.158 235.795C151.718 237.295 152.498 239.26 152.498 241.69C152.498 244.09 151.748 246.175 150.248 247.945C148.778 249.685 146.978 250.555 144.848 250.555C145.298 250.765 145.823 251.185 146.423 251.815C147.053 252.415 147.608 253.045 148.088 253.705C150.668 257.395 152.348 259.675 153.128 260.545C153.908 261.385 154.463 261.97 154.793 262.3C155.123 262.6 155.483 262.9 155.873 263.2C156.263 263.5 156.653 263.74 157.043 263.92C157.913 264.34 158.843 264.55 159.833 264.55V265H157.358C156.068 265 154.868 264.775 153.758 264.325C152.648 263.845 151.808 263.365 151.238 262.885C150.698 262.375 150.218 261.895 149.798 261.445C149.408 260.965 148.298 259.405 146.468 256.765C144.638 254.125 143.573 252.625 143.273 252.265C142.973 251.875 142.658 251.5 142.328 251.14C141.368 250.12 140.408 249.61 139.448 249.61V249.16C139.688 249.19 140.003 249.205 140.393 249.205C140.783 249.205 141.263 249.19 141.833 249.16C145.553 249.07 147.893 247.51 148.853 244.48C149.033 243.88 149.123 243.325 149.123 242.815C149.123 242.275 149.123 241.93 149.123 241.78C149.063 239.77 148.538 238.15 147.548 236.92C146.558 235.69 145.223 235.03 143.543 234.94C142.823 234.91 141.923 234.895 140.843 234.895ZM169.935 234.895H167.055V261.715C167.055 262.495 167.325 263.17 167.865 263.74C168.435 264.28 169.125 264.55 169.935 264.55H170.475L170.52 265H160.665V264.55H161.25C162.03 264.55 162.69 264.28 163.23 263.74C163.8 263.2 164.1 262.54 164.13 261.76V236.785C164.1 236.005 163.8 235.345 163.23 234.805C162.69 234.235 162.03 233.95 161.25 233.95H160.665V233.5H172.815C175.545 233.5 177.69 234.265 179.25 235.795C180.81 237.295 181.59 239.26 181.59 241.69C181.59 244.09 180.84 246.175 179.34 247.945C177.87 249.685 176.07 250.555 173.94 250.555C174.39 250.765 174.915 251.185 175.515 251.815C176.145 252.415 176.7 253.045 177.18 253.705C179.76 257.395 181.44 259.675 182.22 260.545C183 261.385 183.555 261.97 183.885 262.3C184.215 262.6 184.575 262.9 184.965 263.2C185.355 263.5 185.745 263.74 186.135 263.92C187.005 264.34 187.935 264.55 188.925 264.55V265H186.45C185.16 265 183.96 264.775 182.85 264.325C181.74 263.845 180.9 263.365 180.33 262.885C179.79 262.375 179.31 261.895 178.89 261.445C178.5 260.965 177.39 259.405 175.56 256.765C173.73 254.125 172.665 252.625 172.365 252.265C172.065 251.875 171.75 251.5 171.42 251.14C170.46 250.12 169.5 249.61 168.54 249.61V249.16C168.78 249.19 169.095 249.205 169.485 249.205C169.875 249.205 170.355 249.19 170.925 249.16C174.645 249.07 176.985 247.51 177.945 244.48C178.125 243.88 178.215 243.325 178.215 242.815C178.215 242.275 178.215 241.93 178.215 241.78C178.155 239.77 177.63 238.15 176.64 236.92C175.65 235.69 174.315 235.03 172.635 234.94C171.915 234.91 171.015 234.895 169.935 234.895ZM219.277 264.55H219.637V265H209.512V264.55H209.917C210.547 264.55 211.012 264.355 211.312 263.965C211.642 263.545 211.807 263.155 211.807 262.795C211.807 262.435 211.747 262.075 211.627 261.715L208.747 254.065H196.597L193.582 261.76C193.462 262.12 193.402 262.48 193.402 262.84C193.402 263.17 193.552 263.545 193.852 263.965C194.182 264.355 194.662 264.55 195.292 264.55H195.697V265H186.652V264.55H187.057C187.807 264.55 188.542 264.31 189.262 263.83C189.982 263.35 190.567 262.645 191.017 261.715L201.187 237.505C202.297 235.075 202.852 233.53 202.852 232.87H203.257L215.317 261.715C215.737 262.645 216.307 263.35 217.027 263.83C217.747 264.31 218.497 264.55 219.277 264.55ZM197.137 252.715H208.207L202.807 238.27L197.137 252.715ZM242.434 237.505C242.434 236.785 242.179 236.17 241.669 235.66C241.159 235.12 240.559 234.835 239.869 234.805H231.319V261.76C231.349 262.54 231.634 263.2 232.174 263.74C232.744 264.28 233.419 264.55 234.199 264.55H234.784V265H224.929V264.55H225.514C226.294 264.55 226.954 264.28 227.494 263.74C228.064 263.2 228.364 262.555 228.394 261.805V234.805H219.844C219.124 234.835 218.509 235.12 217.999 235.66C217.519 236.17 217.279 236.785 217.279 237.505V238.27L216.829 238.315V232.645C217.279 232.825 218.059 233.005 219.169 233.185C220.279 233.365 221.299 233.455 222.229 233.455H237.439C238.909 233.455 240.124 233.35 241.084 233.14C242.074 232.9 242.674 232.735 242.884 232.645V238.315L242.434 238.27V237.505ZM247.031 264.55C247.811 264.55 248.471 264.28 249.011 263.74C249.581 263.17 249.881 262.495 249.911 261.715V236.74C249.881 235.96 249.581 235.3 249.011 234.76C248.471 234.22 247.811 233.95 247.031 233.95H246.446V233.5H256.301V233.95H255.716C254.936 233.95 254.261 234.22 253.691 234.76C253.151 235.3 252.866 235.96 252.836 236.74V261.715C252.836 262.495 253.121 263.17 253.691 263.74C254.261 264.28 254.936 264.55 255.716 264.55H256.301V265H246.446V264.55H247.031ZM283.701 233.5H292.746V233.95H292.341C291.591 233.95 290.856 234.19 290.136 234.67C289.416 235.12 288.846 235.81 288.426 236.74L277.581 260.995C276.471 263.425 275.916 264.97 275.916 265.63H275.511L262.866 236.785C262.446 235.825 261.861 235.12 261.111 234.67C260.391 234.19 259.656 233.95 258.906 233.95H258.546V233.5H268.671V233.95H268.266C267.636 233.95 267.156 234.16 266.826 234.58C266.526 234.97 266.376 235.345 266.376 235.705C266.376 236.035 266.451 236.38 266.601 236.74L276.006 260.32L285.816 236.74C285.936 236.38 285.996 236.035 285.996 235.705C285.996 235.345 285.831 234.97 285.501 234.58C285.201 234.16 284.736 233.95 284.106 233.95H283.701V233.5ZM295.547 264.55C296.327 264.55 296.987 264.28 297.527 263.74C298.097 263.17 298.397 262.495 298.427 261.715V236.515C298.427 235.795 298.142 235.195 297.572 234.715C297.002 234.205 296.327 233.95 295.547 233.95H295.007L294.962 233.5H308.147C309.077 233.5 310.082 233.41 311.162 233.23C312.272 233.05 313.052 232.87 313.502 232.69V238.36H313.052V237.55C313.052 236.83 312.797 236.215 312.287 235.705C311.807 235.195 311.222 234.925 310.532 234.895H301.352V248.8H308.957C309.557 248.77 310.067 248.545 310.487 248.125C310.907 247.705 311.117 247.18 311.117 246.55V245.92H311.567V253.03H311.117V252.355C311.117 251.755 310.907 251.245 310.487 250.825C310.097 250.405 309.602 250.18 309.002 250.15H301.352V263.605H307.787C310.007 263.605 311.702 263.11 312.872 262.12C314.042 261.13 315.017 259.66 315.797 257.71H316.247L313.637 265H294.962V264.55H295.547ZM388.208 271.84C385.808 272.59 383.648 272.725 381.728 272.245C379.718 271.705 377.978 270.865 376.508 269.725C375.098 268.585 373.658 267.22 372.188 265.63L348.473 239.35V261.85C348.503 262.9 348.968 263.68 349.868 264.19C350.288 264.43 350.738 264.55 351.218 264.55H352.073V265H342.803V264.55H343.658C344.408 264.55 345.053 264.295 345.593 263.785C346.133 263.245 346.403 262.585 346.403 261.805V237.1C346.253 236.89 345.953 236.5 345.503 235.93C345.053 235.33 344.678 234.85 344.378 234.49C344.078 234.13 343.673 233.665 343.163 233.095C342.653 232.495 342.173 232.015 341.723 231.655C341.303 231.295 340.808 230.875 340.238 230.395C339.338 229.705 338.378 229.21 337.358 228.91C336.338 228.61 335.483 228.46 334.793 228.46C334.073 228.46 333.308 228.58 332.498 228.82L332.318 228.37C333.758 227.77 335.153 227.47 336.503 227.47C337.823 227.47 338.963 227.635 339.923 227.965C340.883 228.265 341.918 228.82 343.028 229.63C344.138 230.44 345.038 231.19 345.728 231.88C346.448 232.57 347.303 233.47 348.293 234.58L370.973 259.78V236.695C370.943 235.915 370.658 235.27 370.118 234.76C369.578 234.22 368.933 233.95 368.183 233.95H367.328V233.5H376.598V233.95H375.788C375.038 233.95 374.393 234.22 373.853 234.76C373.313 235.27 373.028 235.9 372.998 236.65V262.075C373.298 262.405 373.718 262.9 374.258 263.56C374.828 264.22 375.218 264.685 375.428 264.955C375.668 265.225 376.013 265.615 376.463 266.125C376.913 266.635 377.288 267.025 377.588 267.295C377.918 267.595 378.308 267.955 378.758 268.375C379.238 268.825 379.673 269.17 380.063 269.41C380.483 269.68 380.948 269.98 381.458 270.31C382.178 270.73 382.988 271.045 383.888 271.255C384.818 271.465 385.568 271.57 386.138 271.57C386.738 271.57 387.368 271.51 388.028 271.39L388.208 271.84ZM384.306 237.415C387.516 234.385 391.671 232.87 396.771 232.87C401.901 232.87 406.071 234.385 409.281 237.415C412.491 240.415 414.096 244.36 414.096 249.25C414.096 254.14 412.491 258.1 409.281 261.13C406.071 264.13 401.901 265.63 396.771 265.63C391.671 265.63 387.516 264.13 384.306 261.13C381.096 258.1 379.491 254.14 379.491 249.25C379.491 244.36 381.096 240.415 384.306 237.415ZM386.736 260.14C389.286 262.9 392.631 264.28 396.771 264.28C400.911 264.28 404.241 262.9 406.761 260.14C409.311 257.38 410.586 253.75 410.586 249.25C410.586 244.75 409.311 241.12 406.761 238.36C404.241 235.6 400.911 234.22 396.771 234.22C392.631 234.22 389.286 235.6 386.736 238.36C384.216 241.12 382.956 244.75 382.956 249.25C382.956 253.75 384.216 257.38 386.736 260.14ZM408.257 237.415C411.467 234.385 415.622 232.87 420.722 232.87C425.852 232.87 430.022 234.385 433.232 237.415C436.442 240.415 438.047 244.36 438.047 249.25C438.047 254.14 436.442 258.1 433.232 261.13C430.022 264.13 425.852 265.63 420.722 265.63C415.622 265.63 411.467 264.13 408.257 261.13C405.047 258.1 403.442 254.14 403.442 249.25C403.442 244.36 405.047 240.415 408.257 237.415ZM410.687 260.14C413.237 262.9 416.582 264.28 420.722 264.28C424.862 264.28 428.192 262.9 430.712 260.14C433.262 257.38 434.537 253.75 434.537 249.25C434.537 244.75 433.262 241.12 430.712 238.36C428.192 235.6 424.862 234.22 420.722 234.22C416.582 234.22 413.237 235.6 410.687 238.36C408.167 241.12 406.907 244.75 406.907 249.25C406.907 253.75 408.167 257.38 410.687 260.14ZM450.877 264.55H451.462V265H441.607V264.55H442.192C442.972 264.55 443.632 264.28 444.172 263.74C444.742 263.17 445.042 262.495 445.072 261.715V236.74C445.042 235.96 444.742 235.3 444.172 234.76C443.632 234.22 442.972 233.95 442.192 233.95H441.607V233.5H451.462V233.95H450.877C450.097 233.95 449.422 234.22 448.852 234.76C448.312 235.3 448.027 235.96 447.997 236.74V261.715C447.997 262.495 448.282 263.17 448.852 263.74C449.422 264.28 450.097 264.55 450.877 264.55ZM468.967 265H467.032C463.972 265 461.722 264.145 460.282 262.435L449.437 249.34L460.057 236.02C460.297 235.72 460.417 235.45 460.417 235.21C460.417 234.97 460.372 234.76 460.282 234.58C460.042 234.13 459.607 233.905 458.977 233.905H458.527V233.5H468.022V233.905H467.842C465.862 233.905 464.242 234.61 462.982 236.02L452.407 248.26L464.692 262.705C465.892 263.905 467.317 264.52 468.967 264.55V265Z" fill="black"/>
</svg>
